<svg version="1" xmlns="http://www.w3.org/2000/svg" width="475" height="475" fill="#eeeeee" viewBox="0 0 475 475"><path d="M164 37H55c-15 0-28 5-39 16A53 53 0 0 0 0 91v110c0 15 5 28 16 39 11 10 24 16 39 16h64c7 0 14 2 19 8 6 5 8 12 8 19v9c0 21-7 38-21 52a70 70 0 0 1-52 21H55c-5 0-9 2-13 6-4 3-5 8-5 13v36c0 5 1 9 5 13s8 6 13 6h18a147 147 0 0 0 146-146V90c0-15-5-28-16-38s-23-16-39-16zM459 53a53 53 0 0 0-39-16H311c-16 0-29 5-39 16a53 53 0 0 0-16 38v110c0 15 5 28 16 39 10 10 23 16 39 16h64c7 0 14 2 19 8 5 5 8 12 8 19v9c0 21-7 38-21 52a70 70 0 0 1-52 21h-18c-5 0-10 2-13 6-4 3-6 8-6 13v36c0 5 2 9 6 13 3 4 8 6 13 6h18a147 147 0 0 0 146-146V90c0-15-5-28-16-38z"/></svg>
