<svg version="1" xmlns="http://www.w3.org/2000/svg" width="475" height="475" fill="#eeeeee" viewBox="0 0 475 475"><path d="M164 219h-64c-7 0-14-2-19-8-5-5-8-12-8-19v-9c0-20 7-38 22-52 14-14 31-21 51-21h18c5 0 10-2 13-6 4-3 6-8 6-13V55c0-5-2-9-6-13-3-4-8-5-13-5h-18A147 147 0 0 0 0 183v201c0 15 5 28 16 39 11 10 24 16 39 16h109c16 0 29-6 39-16 11-11 16-24 16-39V274c0-15-5-28-16-39a53 53 0 0 0-39-16zM459 235a53 53 0 0 0-39-16h-64c-7 0-14-2-19-8-5-5-8-12-8-19v-9c0-20 7-38 21-52 15-14 32-21 52-21h18c5 0 10-2 13-6 4-3 6-8 6-13V55c0-5-2-9-6-13-3-4-8-5-13-5h-18a147 147 0 0 0-146 146v201c0 15 5 28 16 39 10 10 23 16 39 16h109c15 0 28-6 39-16 11-11 16-24 16-39V274c0-15-5-28-16-39z"/></svg>
